inDegrees=no
num_controls=7
num_derivatives=13
num_iterations=153
num_multipliers=7
num_parameters=0
num_slacks=7
num_states=26
objective=5.783331
objective_accelerations=0.470790
objective_balance=0.059194
objective_effort=0.422095
objective_height=4.760339
objective_ligament=0.070913
solver_duration=1665.579683
status=Solve_Succeeded
success=true
DataType=double
version=3
OpenSimVersion=4.4-2022-07-23-0e9fedc
endheader
time	/jointset/ground_pelvis/pelvis_tilt/value	/jointset/ground_pelvis/pelvis_tx/value	/jointset/ground_pelvis/pelvis_ty/value	/jointset/hip_l/hip_flexion_l/value	/jointset/hip_l/hip_adduction_l/value	/jointset/hip_l/hip_rotation_l/value	/jointset/back/lumbar_extension/value	/jointset/patellofemoral_l/patellar_flexion_l/value	/jointset/knee_l/knee_flexion_l/value	/jointset/knee_l/knee_adduction_l/value	/jointset/knee_l/knee_rotation_l/value	/jointset/ankle_l/ankle_angle_l/value	/jointset/subtalar_l/subtalar_angle_l/value	/jointset/ground_pelvis/pelvis_tilt/speed	/jointset/ground_pelvis/pelvis_tx/speed	/jointset/ground_pelvis/pelvis_ty/speed	/jointset/hip_l/hip_flexion_l/speed	/jointset/hip_l/hip_adduction_l/speed	/jointset/hip_l/hip_rotation_l/speed	/jointset/back/lumbar_extension/speed	/jointset/patellofemoral_l/patellar_flexion_l/speed	/jointset/knee_l/knee_flexion_l/speed	/jointset/knee_l/knee_adduction_l/speed	/jointset/knee_l/knee_rotation_l/speed	/jointset/ankle_l/ankle_angle_l/speed	/jointset/subtalar_l/subtalar_angle_l/speed	/forceset/tau_hip_flexion_l	/forceset/tau_hip_adduction_l	/forceset/tau_hip_rotation_l	/forceset/tau_knee_flexion_l	/forceset/tau_ankle_angle_l	/forceset/tau_subtalar_angle_l	/forceset/tau_lumbar_extension	lambda_cid13_p0	lambda_cid13_p1	lambda_cid13_p2	lambda_cid13_p3	lambda_cid13_p4	lambda_cid13_p5	lambda_cid14_p0	/jointset/ground_pelvis/pelvis_tilt/accel	/jointset/ground_pelvis/pelvis_tx/accel	/jointset/ground_pelvis/pelvis_ty/accel	/jointset/hip_l/hip_flexion_l/accel	/jointset/hip_l/hip_adduction_l/accel	/jointset/hip_l/hip_rotation_l/accel	/jointset/back/lumbar_extension/accel	/jointset/patellofemoral_l/patellar_flexion_l/accel	/jointset/knee_l/knee_flexion_l/accel	/jointset/knee_l/knee_adduction_l/accel	/jointset/knee_l/knee_rotation_l/accel	/jointset/ankle_l/ankle_angle_l/accel	/jointset/subtalar_l/subtalar_angle_l/accel	gamma_cid13_p0	gamma_cid13_p1	gamma_cid13_p2	gamma_cid13_p3	gamma_cid13_p4	gamma_cid13_p5	gamma_cid14_p0
1	-0.002463596312288444	-0.004250681343930051	0.7257418825605818	1.066343651225387	-0.3396529317424285	0.05471931162387147	-0.9599310072297489	1.350952971223121	1.350952971222974	-0.07778816051443627	-0.174530589019095	0.3841237439640478	0.09881867734821567	0.1160455874531318	0.02942182127096639	0.0640788236837614	-0.3082085285014542	-0.005748557837993362	-0.06723190707536156	-0.00176420450089031	-0.1623847135474936	-0.1623847135474855	-0.001405849594782391	-2.07959261722373e-05	0.02016219691166285	0.003043882460698571	-0.2995120708185527	0.04507812680962781	-0.0001350809450339587	-0.3791682595848767	-0.05798408782261664	0.02971768924986608	0.3875868887400162	-68.36431049070114	-0.4484445199354619	-0.9400579647206754	18.83886927353014	-788.0071788089832	-71.02976862015126	-0.04156954132275033	0.4609890299853417	-0.09551388655521649	1.310586415275644	-3.879384812911065	0.02180557052394234	-1.58208395152198	0.3226447918895174	-4.773835984427802	-4.773835984428018	-0.2609131960558243	-0.01521097289062495	-1.705043581069301	-0.823189912199878	-1.027412412483009e-08	3.00929467090466e-08	5.847854065815295e-08	1.116274775548461e-08	-2.63742555977014e-08	1.101169148531888e-07	-1.453567470880393e-08
1.01	-0.001280676443156655	-0.003961067704668792	0.7264480236884724	1.063068433577611	-0.3397086961086067	0.05396706986791437	-0.9599310238173807	1.349090795856281	1.349090795856193	-0.07781344876340802	-0.1745306676032936	0.3842404515060855	0.09880911258702221	0.1205158779166431	0.02851813373082184	0.07714280121223904	-0.3468214802233947	-0.005398948356046268	-0.08321180253786703	0.001863837411784925	-0.2100534474210309	-0.2100534474210385	-0.003653729470927708	4.08702079320176e-06	0.003185962249408227	-0.004944646065891175	-0.2993351856525715	0.04527936453381356	-0.0002107470840151553	-0.3788159999212176	-0.05820960583104548	0.02985604832724831	0.3879710711144713	-68.42701320916397	-0.5193518269600169	-0.9038560349883784	18.56616100200295	-788.2227380261942	-71.09305257732389	-0.04158990919768526	0.4366714343990278	-0.0852079850315111	1.303306436652808	-3.850224562496285	0.04233612693935319	-1.605261756705981	0.3983264691844867	-4.76385124648615	-4.763851246488351	-0.2070235731156939	0.0112100193870976	-1.692916562926815	-0.7848694971349245	-1.813454937422977e-08	2.132229628535044e-08	8.707782475372924e-08	2.055681522953945e-08	-3.433294750890908e-08	1.15371393209425e-07	-1.985822724463615e-08
1.02	-5.372919341118441e-05	-0.003679973300266255	0.7272846051946509	1.059407491570472	-0.3397608048819821	0.05305516527469587	-0.9598916714709794	1.346751841319171	1.346751841319146	-0.07786127544909928	-0.174530522939889	0.3841875960706766	0.0987200255057139	0.1248510635747312	0.0277179742992217	0.09016689934134967	-0.3853534003717748	-0.005017439277720843	-0.09916447452402277	0.006109582453552656	-0.2577405476013533	-0.2577405476013746	-0.005913536935948804	2.385360363119176e-05	-0.01375039857778265	-0.01286058156234376	-0.2991583004866614	0.04548060225796019	-0.0002864132230103969	-0.3784637402575759	-0.05843512383947975	0.02999440740456793	0.3883552534888742	-68.50324571849154	-0.5863121076081885	-0.8700863568646975	18.35527580295927	-788.6163502729364	-71.13714872746925	-0.04161008772262523	0.4339680689007203	-0.07480826484635576	1.302610535402244	-3.863178498199033	0.02818548979962656	-1.576639256252017	0.4461854177085659	-4.777509245784855	-4.777509245784645	-0.2632987138309703	-0.01623424571607299	-1.697068814056578	-0.8086713061724278	-2.332973025305256e-08	7.199176595281726e-09	1.159657597289131e-07	2.31740333550782e-08	-3.997645511350572e-08	1.122385247739217e-07	-2.515852886536301e-08
1.03	0.00121564838364999	-0.003406233947005825	0.7282511478720226	1.055361887979931	-0.3398089363310029	0.05198398121239316	-0.9598058425851302	1.343936106515939	1.343936106515883	-0.07793178873938003	-0.1745301859108263	0.3839657733596845	0.09855227710712594	0.1289771794807858	0.02706023560071514	0.1031270628166091	-0.4237290870223771	-0.004604366991719385	-0.115062402167606	0.01125291832060126	-0.3053918523734465	-0.3053918523734691	-0.008190510761764034	4.066778965333145e-05	-0.03058801063161168	-0.02066535562182922	-0.2994483115301066	0.04571926813109858	-0.0003986020434698978	-0.3776287248808382	-0.05869677820510676	0.03021913984749382	0.3893334131616965	-68.57532546486357	-0.7105517096179534	-0.8054357746309738	17.90103504334463	-789.0353447198519	-71.20626681631531	-0.04163513348026091	0.3948408379134539	-0.05670062536751533	1.290524102793403	-3.819032073695159	0.04852565742025736	-1.594904548130953	0.5779162110230761	-4.756750868300703	-4.756750868301056	-0.2101204051336684	0.01023775315765607	-1.673189842155601	-0.7628348427661205	-2.849771476074698e-08	-6.978560128117348e-09	1.448566401212358e-07	2.572209995665245e-08	-4.559633838844304e-08	1.090200711670741e-07	-3.045860343593573e-08
1.04	0.002524868617072928	-0.003138160771333237	0.7293468531539875	1.050933673857845	-0.3398528055452766	0.05075411086769398	-0.9596626786326148	1.34064429670991	1.340644296709819	-0.07802511650556589	-0.1745297610394359	0.383576358039933	0.09830719009055747	0.1328195948450397	0.02658473878165311	0.1159994202599998	-0.4618755066811606	-0.00416499232891833	-0.1309017309999725	0.01757659578042045	-0.3529555481607094	-0.3529555481607343	-0.01047643211465723	4.14220715196419e-05	-0.04726892032982592	-0.02832830515850193	-0.2997383225735805	0.04595793400420487	-0.0005107908639073887	-0.3767937095041086	-0.05895843257074154	0.030443872290366	0.3903115728345009	-68.66110736917389	-0.8307356098826628	-0.7433244356575813	17.50662785257832	-789.6354765366981	-71.25673888398413	-0.04165920352465719	0.3772279605406223	-0.03835988895747072	1.285049329028493	-3.817325099835291	0.03344596515951329	-1.564919494008702	0.6822537362625538	-4.759987448818794	-4.759987448818773	-0.2650882192465714	-0.01944622654731994	-1.665728342933651	-0.7803064016099392	-3.253190416497363e-08	-2.392474261412191e-08	1.708241967949852e-07	2.581327610607593e-08	-5.104086752242079e-08	9.801657934333932e-08	-3.487001309719989e-08
1.05	0.003871219632997468	-0.002873970181556918	0.7305707851980444	1.046125179155237	-0.3398921235780789	0.04936626550469467	-0.9594508110240106	1.336877376569326	1.336877376569255	-0.07814140589673704	-0.1745293813964966	0.3830208515889941	0.09798621243899563	0.1364144379775025	0.0262799098863014	0.1287664292819155	-0.499779898811987	-0.003690793187534049	-0.1466522180995649	0.02495226388244415	-0.4004049593121149	-0.400404959312145	-0.01278068119556022	3.4078924862374e-05	-0.06381254372493271	-0.0358391870229776	-0.299501566093346	0.04613700862005116	-0.0006532558077751815	-0.3757061220039074	-0.0589779372581084	0.03070952419426914	0.3907143829512522	-68.62737689986523	-1.000356689279759	-0.661063203122608	17.08650629800477	-789.5985903021755	-71.35113791586316	-0.04169385852406354	0.3451848939384072	-0.02255961733305193	1.269431447416268	-3.770469503918136	0.05555808011823585	-1.577878850658038	0.7885240382685018	-4.733881956651522	-4.73388195665235	-0.212999613596384	0.008597129386926382	-1.645709276497372	-0.7322898361442844	-3.653066247221691e-08	-4.095743903020787e-08	1.967003996025292e-07	2.582767442886971e-08	-5.647991683949356e-08	8.676980507532685e-08	-3.925365198004817e-08
